<svg width="32.000000" height="32.000000" viewBox="0 0 32 32" fill="none" xmlns="http://www.w3.org/2000/svg" xmlns:xlink="http://www.w3.org/1999/xlink">
	<desc>
			Created with Pixso.
	</desc>
	<defs/>
	<path id="Vector" d="M32 16.04C32 7.18 24.83 0 16 0C7.16 0 0 7.18 0 16.04C0 23.8 5.5 30.26 12.8 31.75L12.8 20.85L9.6 20.85L9.6 16.04L12.8 16.04L12.8 12.03C12.8 8.93 15.31 6.41 18.39 6.41L22.39 6.41L22.39 11.22L19.2 11.22C18.32 11.22 17.6 11.94 17.6 12.83L17.6 16.04L22.39 16.04L22.39 20.85L17.6 20.85L17.6 32C25.67 31.19 32 24.36 32 16.04Z" fill="#FFFFFF" fill-opacity="1.000000" fill-rule="nonzero"/>
</svg>
