<svg width="32.000000" height="32.000000" viewBox="0 0 32 32" fill="none" xmlns="http://www.w3.org/2000/svg" xmlns:xlink="http://www.w3.org/1999/xlink">
	<desc>
			Created with Pixso.
	</desc>
	<defs/>
	<path id="Vector" d="M21 16C21 17.32 20.47 18.59 19.53 19.53C18.59 20.47 17.32 21 16 21C14.67 21 13.4 20.47 12.46 19.53C11.52 18.59 11 17.32 11 16C11 15.71 11.03 15.43 11.08 15.16L9.33 15.16L9.33 21.82C9.33 22.29 9.7 22.66 10.17 22.66L21.83 22.66C22.05 22.66 22.26 22.57 22.42 22.42C22.57 22.26 22.66 22.05 22.66 21.82L22.66 15.16L20.91 15.16C20.97 15.43 21 15.71 21 16ZM16 19.33C16.43 19.33 16.87 19.24 17.27 19.07C17.68 18.91 18.04 18.66 18.35 18.35C18.66 18.04 18.91 17.67 19.07 17.27C19.24 16.86 19.33 16.43 19.33 15.99C19.33 15.56 19.24 15.12 19.07 14.72C18.91 14.31 18.66 13.95 18.35 13.64C18.04 13.33 17.67 13.08 17.27 12.91C16.86 12.75 16.43 12.66 15.99 12.66C15.11 12.66 14.26 13.01 13.64 13.64C13.01 14.26 12.66 15.11 12.66 16C12.66 16.88 13.01 17.73 13.64 18.35C14.26 18.98 15.11 19.33 16 19.33ZM20 12.5L21.99 12.5C22.13 12.5 22.25 12.44 22.35 12.35C22.44 12.25 22.49 12.13 22.5 12L22.5 10C22.5 9.86 22.44 9.74 22.35 9.64C22.25 9.55 22.13 9.5 21.99 9.5L20 9.5C19.86 9.5 19.73 9.55 19.64 9.64C19.55 9.74 19.49 9.86 19.49 10L19.49 12C19.5 12.27 19.72 12.5 20 12.5ZM16 0C11.75 0 7.68 1.68 4.68 4.68C1.68 7.68 0 11.75 0 16C0 20.24 1.68 24.31 4.68 27.31C7.68 30.31 11.75 32 16 32C18.1 32 20.18 31.58 22.12 30.78C24.06 29.97 25.82 28.79 27.31 27.31C28.79 25.82 29.97 24.06 30.78 22.12C31.58 20.18 32 18.1 32 16C32 13.89 31.58 11.81 30.78 9.87C29.97 7.93 28.79 6.17 27.31 4.68C25.82 3.2 24.06 2.02 22.12 1.21C20.18 0.41 18.1 0 16 0ZM24.33 22.48C24.33 23.5 23.5 24.33 22.48 24.33L9.51 24.33C8.5 24.33 7.66 23.5 7.66 22.48L7.66 9.51C7.66 8.5 8.5 7.66 9.51 7.66L22.48 7.66C23.5 7.66 24.33 8.5 24.33 9.51L24.33 22.48Z" fill="#FFFFFF" fill-opacity="1.000000" fill-rule="nonzero"/>
</svg>
