<svg width="30.000000" height="31.000000" viewBox="0 0 30 31" fill="none" xmlns="http://www.w3.org/2000/svg" xmlns:xlink="http://www.w3.org/1999/xlink">
	<desc>
			Created with Pixso.
	</desc>
	<defs/>
	<path id="Vector" d="M12 5.29L18 5.29C18 4.49 17.68 3.72 17.12 3.15C16.55 2.58 15.79 2.26 15 2.26C14.2 2.26 13.44 2.58 12.87 3.15C12.31 3.72 12 4.49 12 5.29ZM9.75 5.29C9.75 4.59 9.88 3.9 10.14 3.26C10.41 2.62 10.8 2.04 11.28 1.55C11.77 1.05 12.35 0.66 12.99 0.4C13.62 0.13 14.31 0 15 0C15.68 0 16.37 0.13 17 0.4C17.64 0.66 18.22 1.05 18.71 1.55C19.19 2.04 19.58 2.62 19.85 3.26C20.11 3.9 20.25 4.59 20.25 5.29L28.87 5.29C29.17 5.29 29.45 5.41 29.67 5.62C29.88 5.83 30 6.12 30 6.42C30 6.72 29.88 7.01 29.67 7.22C29.45 7.44 29.17 7.56 28.87 7.56L26.89 7.56L25.14 25.87C25 27.27 24.35 28.58 23.32 29.52C22.28 30.47 20.93 31 19.53 31L10.46 31C9.06 31 7.71 30.47 6.67 29.52C5.64 28.58 4.99 27.27 4.86 25.87L3.1 7.56L1.12 7.56C0.82 7.56 0.54 7.44 0.32 7.22C0.11 7.01 0 6.72 0 6.42C0 6.12 0.11 5.83 0.32 5.62C0.54 5.41 0.82 5.29 1.12 5.29L9.75 5.29ZM12.75 12.47C12.75 12.17 12.63 11.88 12.42 11.67C12.2 11.46 11.92 11.34 11.62 11.34C11.32 11.34 11.04 11.46 10.82 11.67C10.61 11.88 10.5 12.17 10.5 12.47L10.5 23.81C10.5 24.11 10.61 24.4 10.82 24.61C11.04 24.83 11.32 24.95 11.62 24.95C11.92 24.95 12.2 24.83 12.42 24.61C12.63 24.4 12.75 24.11 12.75 23.81L12.75 12.47ZM18.37 11.34C18.67 11.34 18.95 11.46 19.17 11.67C19.38 11.88 19.5 12.17 19.5 12.47L19.5 23.81C19.5 24.11 19.38 24.4 19.17 24.61C18.95 24.83 18.67 24.95 18.37 24.95C18.07 24.95 17.79 24.83 17.57 24.61C17.36 24.4 17.25 24.11 17.25 23.81L17.25 12.47C17.25 12.17 17.36 11.88 17.57 11.67C17.79 11.46 18.07 11.34 18.37 11.34ZM7.1 25.65C7.18 26.49 7.57 27.28 8.19 27.84C8.81 28.41 9.62 28.73 10.46 28.73L19.53 28.73C20.37 28.73 21.18 28.41 21.8 27.84C22.42 27.28 22.81 26.49 22.89 25.65L24.63 7.56L5.36 7.56L7.1 25.65Z" fill="#000000" fill-opacity="1.000000" fill-rule="nonzero"/>
</svg>
