<svg width="32.000000" height="32.000000" viewBox="0 0 32 32" fill="none" xmlns="http://www.w3.org/2000/svg" xmlns:xlink="http://www.w3.org/1999/xlink">
	<desc>
			Created with Pixso.
	</desc>
	<defs/>
	<path id="Vector" d="M16 0C24.84 0 32 7.15 32 16C32 24.84 24.84 32 16 32C7.15 32 0 24.84 0 16C0 7.15 7.15 0 16 0ZM13.07 24.43C20.15 24.43 24.04 18.56 24.04 13.46L24.04 12.96C24.8 12.41 25.46 11.72 25.96 10.94C25.28 11.24 24.52 11.45 23.74 11.56C24.54 11.08 25.16 10.33 25.43 9.43C24.68 9.87 23.86 10.19 22.99 10.37C22.28 9.62 21.28 9.16 20.18 9.16C18.05 9.16 16.32 10.9 16.32 13.02C16.32 13.32 16.34 13.62 16.43 13.89C13.23 13.73 10.37 12.2 8.47 9.87C8.15 10.44 7.95 11.1 7.95 11.81C7.95 13.14 8.63 14.33 9.66 15.01C9.02 15.01 8.43 14.83 7.93 14.53L7.93 14.58C7.93 16.45 9.25 18.01 11.01 18.37C10.69 18.46 10.35 18.51 10.01 18.51C9.76 18.51 9.53 18.49 9.28 18.44C9.76 19.97 11.2 21.09 12.86 21.12C11.54 22.14 9.87 22.76 8.06 22.76C7.74 22.76 7.45 22.76 7.15 22.72C8.84 23.81 10.87 24.45 13.05 24.45L13.07 24.43Z" fill="#FFFFFF" fill-opacity="1.000000" fill-rule="nonzero"/>
</svg>
