<svg width="107" height="99" viewBox="0 0 107 99" fill="none" xmlns="http://www.w3.org/2000/svg">
<path d="M76.4609 0C93.0293 0.000247571 106.461 13.4316 106.461 30V68.1162C106.461 84.6844 93.0291 98.116 76.4609 98.1162H30.54C13.9716 98.1162 0.540266 84.6846 0.540039 68.1162V30C0.540051 13.4315 13.9715 0 30.54 0H76.4609ZM17 16L44.8701 52.4688L18.4824 82.7109H29.749L50.207 59.4365L67.9971 82.7109H90.8271L61.7705 44.3154L86.3799 16H75.1123L56.582 37.3477L40.4229 16H17ZM37.0137 22.375L77.3369 75.8916H71.1104L30.1943 22.375H37.0137Z" fill="#1181F1"/>
</svg>
